<svg xmlns="http://www.w3.org/2000/svg" width="70.857" height="32" fill="none" id="svg-317915231_1907" viewBox="0 0 70.857 32">
  <g clip-path="url(#svg-317915231_1907_a)" fill="#FF3C6E">
    <path d="m4.254 7.051 -0.099 23.939L0 30.97l0.107 -23.939 4.145 0.019Zm8.207 2.332c-0.014 3.254 -4.947 3.231 -4.933 -0.023 0.015 -3.255 4.947 -3.23 4.933 0.023m-4.569 4.67 -0.076 16.952 4.176 0.019 0.076 -16.952zm25.779 0.152 -7.269 16.952 -4.519 -0.018 -7.15 -17.019 4.556 0.021 2.309 5.593 2.569 7.134 2.602 -7.042 2.347 -5.64zm4.509 9.993c0.266 2.089 2.077 3.605 5.017 3.618 1.541 0 3.566 -0.564 4.53 -1.555l2.659 2.65c-1.79 1.842 -4.705 2.718 -7.269 2.7 -5.816 -0.025 -9.265 -3.637 -9.24 -9.049 0.023 -5.135 3.531 -8.82 9.013 -8.795 5.651 0.027 9.16 3.531 8.48 10.484zm9.194 -3.418c-0.264 -2.194 -1.971 -3.296 -4.361 -3.307 -2.262 0 -4.117 1.076 -4.741 3.265zm19.266 10.491 0.04 -8.834c0.012 -2.569 -1.384 -4.527 -4.053 -4.54 -2.57 0 -4.325 2.139 -4.337 4.706l-0.04 8.631L54.095 31.216l0.077 -16.917 3.739 0.017 0.264 2.296c1.72 -1.661 3.436 -2.519 5.56 -2.51 3.973 0.018 7.144 3.013 7.119 8.322l-0.036 8.87 -4.178 -0.021Z"/>
    <path fill-rule="evenodd" clip-rule="evenodd" d="M46.052 3.846c0 -1.774 -1.454 -3.298 -3.198 -3.323a3.086 3.086 0 0 0 -2.224 0.911 3.352 3.352 0 0 0 -1.01 2.378c0.008 0.583 0.13 1.158 0.355 1.694 0.673 1.695 2.077 3.074 2.16 3.147a0.96 0.96 0 0 0 0.686 0.35 1.021 1.021 0 0 0 0.663 -0.373c0.165 -0.155 2.562 -2.426 2.568 -4.785Zm-0.504 5.886a1.036 1.036 0 0 0 -0.104 0.75 0.952 0.952 0 0 0 0.579 0.509c0.102 0.046 1.89 0.83 3.707 0.83a4.571 4.571 0 0 0 1.703 -0.295 3.352 3.352 0 0 0 1.834 -1.813A3.101 3.101 0 0 0 53.295 7.314c-0.667 -1.599 -2.615 -2.397 -4.264 -1.739 -2.206 0.894 -3.431 4.027 -3.483 4.16v-0.004Zm-13.202 -2.408c0.669 -1.598 2.629 -2.396 4.278 -1.738 2.203 0.878 3.433 3.977 3.499 4.154 0.122 0.23 0.158 0.496 0.104 0.751a0.952 0.952 0 0 1 -0.579 0.509c-0.142 0.062 -1.915 0.83 -3.718 0.83a4.648 4.648 0 0 1 -1.717 -0.301 3.368 3.368 0 0 1 -1.84 -1.813 3.063 3.063 0 0 1 -0.027 -2.392"/>
  </g>
  <defs>
    <clipPath id="svg-317915231_1907_a">
      <path fill="#fff" d="M0 0.523h70.857v31.087H0z"/>
    </clipPath>
  </defs>
</svg>
